<?xml version="1.0" standalone="no"?>
<!DOCTYPE svg PUBLIC "-//W3C//DTD SVG 20010904//EN"
 "http://www.w3.org/TR/2001/REC-SVG-20010904/DTD/svg10.dtd">
<svg version="1.0" xmlns="http://www.w3.org/2000/svg"
 width="300.000000pt" height="300.000000pt" viewBox="0 0 300.000000 300.000000"
 preserveAspectRatio="xMidYMid meet">

<g transform="translate(0.000000,300.000000) scale(0.100000,-0.100000)"
fill="#000000" stroke="none">
<path d="M1186 2145 c-49 -17 -113 -78 -137 -130 -17 -36 -19 -68 -19 -323 0
-220 3 -290 14 -316 22 -53 81 -112 137 -135 48 -21 61 -22 332 -19 311 3 312
3 380 72 69 69 72 82 75 374 4 293 -3 337 -58 404 -16 20 -53 48 -82 62 l-52
26 -275 0 c-209 -1 -285 -4 -315 -15z m302 -197 l-3 -83 -60 -3 c-80 -4 -95
-19 -95 -94 l0 -58 -85 0 -85 0 0 68 c0 109 54 199 145 238 17 7 65 13 108 14
l78 0 -3 -82z m217 63 c75 -34 134 -117 135 -187 l0 -32 -77 2 c-74 1 -78 2
-91 28 -14 30 -31 36 -102 40 l-45 3 -3 83 -3 82 73 0 c49 0 86 -6 113 -19z
m135 -368 c0 -134 -13 -175 -71 -230 -49 -46 -97 -63 -179 -63 l-70 0 0 85 0
85 58 0 c31 0 62 4 69 8 15 9 34 58 26 66 -4 3 -39 6 -80 6 l-73 0 0 80 0 80
160 0 160 0 0 -117z m-512 -28 c4 -79 18 -93 96 -97 l61 -3 3 -82 3 -83 -73 0
c-161 0 -257 94 -258 251 0 36 3 69 7 73 4 4 41 5 83 4 l75 -3 3 -60z"/>
<path d="M965 1101 c-35 -15 -59 -50 -59 -88 0 -28 7 -42 33 -65 28 -25 39
-29 70 -24 40 6 84 48 79 75 -2 11 -14 16 -41 16 -42 0 -51 -18 -11 -23 25 -3
25 -4 8 -23 -39 -43 -114 -12 -114 48 0 50 80 85 110 48 14 -17 40 -20 40 -5
0 13 -60 50 -80 49 -8 0 -24 -4 -35 -8z"/>
<path d="M1520 1079 c0 -28 -2 -30 -28 -24 -61 13 -109 -68 -64 -108 27 -25
78 -22 96 5 18 25 23 158 6 158 -5 0 -10 -14 -10 -31z m-10 -69 c15 -28 -4
-60 -35 -60 -31 0 -50 32 -35 60 6 12 21 20 35 20 14 0 29 -8 35 -20z"/>
<path d="M1145 1048 c-27 -15 -35 -28 -35 -59 0 -55 83 -82 114 -37 22 32 20
55 -9 83 -27 28 -40 30 -70 13z m60 -52 c0 -36 -27 -56 -52 -40 -40 25 -20 77
26 72 21 -2 26 -8 26 -32z"/>
<path d="M1286 1039 c-50 -40 -24 -109 42 -109 33 0 62 29 62 63 0 21 -43 67
-63 67 -8 0 -26 -9 -41 -21z m72 -43 c6 -48 -50 -65 -70 -21 -14 32 5 57 41
53 20 -2 27 -9 29 -32z"/>
</g>
</svg>
